HIERARCHY
ROOT Hips
{
	OFFSET 0.000000 71.427986 0.000000
	CHANNELS 6 Xposition Yposition Zposition Xrotation Yrotation Zrotation
	JOINT Pelvis
	{
		OFFSET 0.000000 0.000000 0.000000
		CHANNELS 3 Xrotation Yrotation Zrotation
		JOINT LeftUpLeg
		{
			OFFSET 6.797100 -2.508499 -1.318700
			CHANNELS 3 Xrotation Yrotation Zrotation
			JOINT LeftLeg
			{
				OFFSET 0.069008 -29.241863 0.690200
				CHANNELS 3 Xrotation Yrotation Zrotation
				JOINT LeftFoot
				{
					OFFSET -0.069008 -29.568123 -0.266800
					CHANNELS 3 Xrotation Yrotation Zrotation
					JOINT LeftToeBase
					{
						OFFSET 3.145500 -8.631000 16.059900
						CHANNELS 3 Xrotation Yrotation Zrotation
						End Site
						{
							OFFSET 0.000000 18.501587 0.000000
						}
					}
				}
			}
			JOINT Left_ShortSleeve
			{
				OFFSET 0.265923 -10.480953 1.153800
				CHANNELS 3 Xrotation Yrotation Zrotation
				End Site
				{
					OFFSET 1.725763 19.823879 0.000000
				}
			}
		}
		JOINT RightUpLeg
		{
			OFFSET -6.797100 -2.508499 -1.318700
			CHANNELS 3 Xrotation Yrotation Zrotation
			JOINT RightLeg
			{
				OFFSET -0.082453 -29.241932 0.688000
				CHANNELS 3 Xrotation Yrotation Zrotation
				JOINT RightFoot
				{
					OFFSET 0.082453 -29.568058 -0.264600
					CHANNELS 3 Xrotation Yrotation Zrotation
					JOINT RightToeBase
					{
						OFFSET -3.115300 -8.682800 16.113400
						CHANNELS 3 Xrotation Yrotation Zrotation
						End Site
						{
							OFFSET 0.000000 18.567114 0.000000
						}
					}
				}
			}
			JOINT Right_ShortSleeve
			{
				OFFSET -0.265923 -10.480953 1.153800
				CHANNELS 3 Xrotation Yrotation Zrotation
				End Site
				{
					OFFSET -1.725766 19.823910 0.000000
				}
			}
		}
	}
	JOINT Spine
	{
		OFFSET 0.000000 13.368103 0.470500
		CHANNELS 3 Xrotation Yrotation Zrotation
		JOINT Spine1
		{
			OFFSET 0.147000 13.837402 0.538800
			CHANNELS 3 Xrotation Yrotation Zrotation
			JOINT Spine2
			{
				OFFSET 0.168000 16.242897 -1.435500
				CHANNELS 3 Xrotation Yrotation Zrotation
				JOINT Neck
				{
					OFFSET 0.217200 18.631500 -1.679100
					CHANNELS 3 Xrotation Yrotation Zrotation
					JOINT Head
					{
						OFFSET 0.000000 6.599396 1.385900
						CHANNELS 3 Xrotation Yrotation Zrotation
						JOINT Hat
						{
							OFFSET -0.532200 27.220596 -10.096100
							CHANNELS 3 Xrotation Yrotation Zrotation
							End Site
							{
								OFFSET 0.000000 22.029861 0.000000
							}
						}
						JOINT HairD
						{
							OFFSET -10.777400 17.437393 -1.325900
							CHANNELS 3 Xrotation Yrotation Zrotation
							JOINT HairD1
							{
								OFFSET -3.290299 -11.051193 1.062200
								CHANNELS 3 Xrotation Yrotation Zrotation
								End Site
								{
									OFFSET 0.000000 11.579437 0.000000
								}
							}
						}
						JOINT HairB
						{
							OFFSET -10.777400 17.437393 1.467900
							CHANNELS 3 Xrotation Yrotation Zrotation
							JOINT HairB1
							{
								OFFSET -1.561200 -12.956299 3.590200
								CHANNELS 3 Xrotation Yrotation Zrotation
								End Site
								{
									OFFSET 0.000000 13.534866 0.000000
								}
							}
						}
						JOINT HairA
						{
							OFFSET 9.713100 17.437393 1.467900
							CHANNELS 3 Xrotation Yrotation Zrotation
							JOINT HairA1
							{
								OFFSET 1.561200 -12.956299 3.590200
								CHANNELS 3 Xrotation Yrotation Zrotation
								End Site
								{
									OFFSET 0.000000 13.534866 0.000000
								}
							}
						}
						JOINT HairC
						{
							OFFSET 9.713100 17.437393 -1.325900
							CHANNELS 3 Xrotation Yrotation Zrotation
							JOINT HairC1
							{
								OFFSET 3.290300 -11.051193 1.062200
								CHANNELS 3 Xrotation Yrotation Zrotation
								End Site
								{
									OFFSET 0.000000 11.579437 0.000000
								}
							}
						}
					}
				}
				JOINT LeftShoulder
				{
					OFFSET 5.101800 15.108002 -2.763700
					CHANNELS 3 Xrotation Yrotation Zrotation
					JOINT LeftArm
					{
						OFFSET 9.825497 2.506317 -1.597400
						CHANNELS 3 Xrotation Yrotation Zrotation
						JOINT LeftForeArm
						{
							OFFSET 21.966244 0.000000 0.000000
							CHANNELS 3 Xrotation Yrotation Zrotation
							JOINT LeftHand
							{
								OFFSET 33.879036 0.000000 0.000000
								CHANNELS 3 Xrotation Yrotation Zrotation
								JOINT LeftHandThumb1
								{
									OFFSET 6.715286 -2.359680 3.363841
									CHANNELS 3 Xrotation Yrotation Zrotation
									JOINT LeftHandThumb2
									{
										OFFSET 2.507072 -1.447464 1.447461
										CHANNELS 3 Xrotation Yrotation Zrotation
										JOINT LeftHandThumb3
										{
											OFFSET 2.898338 -1.673355 1.673357
											CHANNELS 3 Xrotation Yrotation Zrotation
											End Site
											{
												OFFSET -0.295959 3.727692 -0.131651
											}
										}
									}
								}
								JOINT LeftHandIndex1
								{
									OFFSET 14.190811 -0.254547 3.840278
									CHANNELS 3 Xrotation Yrotation Zrotation
									JOINT LeftHandIndex2
									{
										OFFSET 3.551727 0.000000 -0.000000
										CHANNELS 3 Xrotation Yrotation Zrotation
										JOINT LeftHandIndex3
										{
											OFFSET 2.894196 0.000000 0.000000
											CHANNELS 3 Xrotation Yrotation Zrotation
											End Site
											{
												OFFSET -1.000603 2.690872 0.366626
											}
										}
									}
								}
								JOINT LeftHandMiddle1
								{
									OFFSET 13.776489 0.000000 0.000000
									CHANNELS 3 Xrotation Yrotation Zrotation
									JOINT LeftHandMiddle2
									{
										OFFSET 3.438232 0.000000 0.000000
										CHANNELS 3 Xrotation Yrotation Zrotation
										JOINT LeftHandMiddle3
										{
											OFFSET 3.691551 0.000000 0.000000
											CHANNELS 3 Xrotation Yrotation Zrotation
											End Site
											{
												OFFSET -1.082298 3.499527 0.457670
											}
										}
									}
								}
								JOINT LeftHandRing1
								{
									OFFSET 13.966164 -0.268127 -3.067488
									CHANNELS 3 Xrotation Yrotation Zrotation
									JOINT LeftHandRing2
									{
										OFFSET 3.162567 0.000000 0.000000
										CHANNELS 3 Xrotation Yrotation Zrotation
										JOINT LeftHandRing3
										{
											OFFSET 3.324348 0.000000 0.000000
											CHANNELS 3 Xrotation Yrotation Zrotation
											End Site
											{
												OFFSET -0.861900 3.184998 0.405154
											}
										}
									}
								}
								JOINT LeftHandPinky1
								{
									OFFSET 13.131393 -0.168503 -5.746925
									CHANNELS 3 Xrotation Yrotation Zrotation
									JOINT LeftHandPinky2
									{
										OFFSET 2.849182 0.000000 0.000000
										CHANNELS 3 Xrotation Yrotation Zrotation
										JOINT LeftHandPinky3
										{
											OFFSET 2.805038 0.000000 0.000000
											CHANNELS 3 Xrotation Yrotation Zrotation
											End Site
											{
												OFFSET -0.882500 2.642609 0.325652
											}
										}
									}
								}
							}
							JOINT Left_Sleeve
							{
								OFFSET 6.592125 -0.646545 0.805568
								CHANNELS 3 Xrotation Yrotation Zrotation
								End Site
								{
									OFFSET -0.000179 20.275787 -0.000000
								}
							}
						}
					}
				}
				JOINT RightShoulder
				{
					OFFSET -5.731700 15.108002 -2.763700
					CHANNELS 3 Xrotation Yrotation Zrotation
					JOINT RightArm
					{
						OFFSET -9.825497 2.506317 -1.597400
						CHANNELS 3 Xrotation Yrotation Zrotation
						JOINT RightForeArm
						{
							OFFSET -21.966242 0.000000 0.000000
							CHANNELS 3 Xrotation Yrotation Zrotation
							JOINT RightHand
							{
								OFFSET -33.879032 0.000000 0.000000
								CHANNELS 3 Xrotation Yrotation Zrotation
								JOINT RightHandThumb1
								{
									OFFSET -6.715286 -2.359680 3.363841
									CHANNELS 3 Xrotation Yrotation Zrotation
									JOINT RightHandThumb2
									{
										OFFSET -2.507072 -1.447464 1.447461
										CHANNELS 3 Xrotation Yrotation Zrotation
										JOINT RightHandThumb3
										{
											OFFSET -2.898338 -1.673355 1.673357
											CHANNELS 3 Xrotation Yrotation Zrotation
											End Site
											{
												OFFSET 0.295959 3.727692 -0.131651
											}
										}
									}
								}
								JOINT RightHandIndex1
								{
									OFFSET -14.190811 -0.254547 3.840278
									CHANNELS 3 Xrotation Yrotation Zrotation
									JOINT RightHandIndex2
									{
										OFFSET -3.551727 0.000000 -0.000000
										CHANNELS 3 Xrotation Yrotation Zrotation
										JOINT RightHandIndex3
										{
											OFFSET -2.894196 0.000000 0.000000
											CHANNELS 3 Xrotation Yrotation Zrotation
											End Site
											{
												OFFSET 1.000603 2.690872 0.366626
											}
										}
									}
								}
								JOINT RightHandMiddle1
								{
									OFFSET -13.776489 0.000000 0.000000
									CHANNELS 3 Xrotation Yrotation Zrotation
									JOINT RightHandMiddle2
									{
										OFFSET -3.438232 0.000000 0.000000
										CHANNELS 3 Xrotation Yrotation Zrotation
										JOINT RightHandMiddle3
										{
											OFFSET -3.691551 0.000000 0.000000
											CHANNELS 3 Xrotation Yrotation Zrotation
											End Site
											{
												OFFSET 1.082298 3.499527 0.457670
											}
										}
									}
								}
								JOINT RightHandRing1
								{
									OFFSET -13.966164 -0.268127 -3.067488
									CHANNELS 3 Xrotation Yrotation Zrotation
									JOINT RightHandRing2
									{
										OFFSET -3.162567 0.000000 0.000000
										CHANNELS 3 Xrotation Yrotation Zrotation
										JOINT RightHandRing3
										{
											OFFSET -3.324348 0.000000 0.000000
											CHANNELS 3 Xrotation Yrotation Zrotation
											End Site
											{
												OFFSET 0.861900 3.184998 0.405154
											}
										}
									}
								}
								JOINT RightHandPinky1
								{
									OFFSET -13.131393 -0.168503 -5.746925
									CHANNELS 3 Xrotation Yrotation Zrotation
									JOINT RightHandPinky2
									{
										OFFSET -2.849182 0.000000 0.000000
										CHANNELS 3 Xrotation Yrotation Zrotation
										JOINT RightHandPinky3
										{
											OFFSET -2.805038 0.000000 0.000000
											CHANNELS 3 Xrotation Yrotation Zrotation
											End Site
											{
												OFFSET 0.882500 2.642609 0.325652
											}
										}
									}
								}
							}
							JOINT Right_Sleeve
							{
								OFFSET -6.592125 -0.646545 0.805568
								CHANNELS 3 Xrotation Yrotation Zrotation
								End Site
								{
									OFFSET 0.000179 20.275787 -0.000000
								}
							}
						}
					}
				}
				JOINT Bind_Right_JacketString
				{
					OFFSET -3.534800 11.969597 7.200700
					CHANNELS 3 Xrotation Yrotation Zrotation
					JOINT Bind_Right_JacketString1
					{
						OFFSET -0.319900 -6.102600 2.794100
						CHANNELS 3 Xrotation Yrotation Zrotation
						End Site
						{
							OFFSET 0.000000 6.719452 0.000000
						}
					}
				}
				JOINT Bind_Left_JacketString
				{
					OFFSET 2.904800 11.969597 7.200700
					CHANNELS 3 Xrotation Yrotation Zrotation
					JOINT Bind_Left_JacketString1
					{
						OFFSET 0.364800 -5.904503 3.186800
						CHANNELS 3 Xrotation Yrotation Zrotation
						End Site
						{
							OFFSET 0.000000 6.719513 0.000000
						}
					}
				}
				JOINT HairE
				{
					OFFSET 5.915200 17.612701 -11.592200
					CHANNELS 3 Xrotation Yrotation Zrotation
					JOINT HairE1
					{
						OFFSET 0.289200 -7.171898 -1.284500
						CHANNELS 3 Xrotation Yrotation Zrotation
						End Site
						{
							OFFSET 0.000000 7.291756 0.000000
						}
					}
				}
				JOINT HairF
				{
					OFFSET -0.864800 17.612701 -11.592200
					CHANNELS 3 Xrotation Yrotation Zrotation
					JOINT HairF1
					{
						OFFSET 0.000000 -14.087097 -2.127501
						CHANNELS 3 Xrotation Yrotation Zrotation
						End Site
						{
							OFFSET 0.000000 14.246841 0.000000
						}
					}
				}
				JOINT HairG
				{
					OFFSET -8.087700 17.612701 -11.592200
					CHANNELS 3 Xrotation Yrotation Zrotation
					JOINT HairG1
					{
						OFFSET -0.293600 -6.081398 -0.910100
						CHANNELS 3 Xrotation Yrotation Zrotation
						End Site
						{
							OFFSET 0.000000 6.156120 0.000000
						}
					}
				}
			}
		}
	}
	JOINT Pouch
	{
		OFFSET 0.000000 4.394501 10.847300
		CHANNELS 3 Xrotation Yrotation Zrotation
		End Site
		{
			OFFSET 0.000000 21.880577 0.000000
		}
	}
	JOINT Bag
	{
		OFFSET -13.229000 4.813004 -0.593300
		CHANNELS 3 Xrotation Yrotation Zrotation
		End Site
		{
			OFFSET 0.000000 21.880577 0.000000
		}
	}
	JOINT OccupyGuyFacialAnim_Joint
	{
		OFFSET 1.000000 -70.206398 -1.655000
		CHANNELS 3 Xrotation Yrotation Zrotation
		End Site
		{
			OFFSET 0.000000 21.880577 0.000000
		}
	}
}
MOTION
Frames: 4
Frame Time: 0.033333
-0.264335 62.743401 1.030816 -2.853010 -11.738399 7.100636 0.000000 0.000001 0.000000 -46.606895 6.679178 12.993094 58.738712 8.255065 -4.735991 11.505892 1.553306 -8.129247 0.000001 0.000001 -0.000000 -0.000000 -0.000000 0.000000 -44.641519 -1.807779 -2.570813 53.501951 8.591487 -7.168562 -8.870500 -3.379665 -1.200126 0.000000 0.000000 0.000000 -0.000002 0.000002 -0.000000 8.973802 1.660421 3.148666 6.603104 0.392171 0.441435 6.601538 0.426918 0.432901 10.945758 1.407309 0.590456 10.490867 9.255185 -3.867302 0.000004 0.000001 -0.000000 0.000004 0.000001 -0.000000 0.000004 0.000001 0.000000 0.000004 0.000001 -0.000000 0.000001 0.000001 -0.000000 0.000004 0.000001 -0.000000 0.000001 0.000001 -0.000000 0.000004 0.000001 -0.000000 0.000004 0.000001 -0.000000 1.841963 -10.585576 11.093480 -10.873990 4.179795 -48.305816 -0.000008 -51.105009 -0.000018 -29.766552 -14.395397 -2.898920 -3.563035 2.263687 -4.920872 7.784199 26.224411 2.502850 0.000002 0.000001 0.000001 7.905223 0.875122 -66.079423 6.624873 5.799818 -97.612726 0.000001 0.000004 -0.000003 5.221926 8.157696 -83.141892 6.624865 5.799838 -97.612740 0.000001 -0.000001 -0.000001 6.920012 8.206474 -89.600539 6.657068 5.795478 -97.931464 -0.000003 0.000001 -0.000001 6.828070 23.264138 -97.641666 6.616460 5.800962 -97.529466 0.000001 -0.000001 0.000003 0.000003 0.000000 -0.000000 -0.282487 11.955344 -11.743910 21.076990 20.273934 1.988423 0.000009 53.272795 -0.000008 22.769284 23.909147 -20.666336 -3.447827 24.142694 3.721697 9.085290 -37.972864 -3.654975 -0.000002 -0.000001 -0.000000 4.178611 8.197419 4.345812 0.557674 -2.211713 28.300482 -0.000001 0.000000 0.000004 0.547150 -4.560215 17.844844 0.562686 -2.220994 28.430128 0.000001 -0.000001 -0.000001 1.226419 -5.511754 31.563838 0.580460 -2.253498 28.885304 0.000002 -0.000000 -0.000000 4.842603 -10.924118 33.262345 0.553801 -2.204546 28.200261 0.000001 0.000001 0.000001 -0.000000 0.000000 -0.000001 0.000001 0.000000 -0.000000 0.000001 0.000000 -0.000000 0.000001 0.000000 -0.000001 0.000001 0.000000 -0.000001 0.000001 0.000000 -0.000000 0.000001 0.000000 -0.000000 0.000001 0.000000 -0.000001 0.000001 0.000000 -0.000001 0.000001 0.000000 -0.000000 0.000001 0.000000 -0.000000 0.000000 0.000001 0.000000 0.000000 0.000001 0.000000 0.000000 0.000001 0.000000 
-0.273140 64.080414 -2.726491 0.741336 -13.488711 9.348102 -0.000000 -0.000001 -0.000000 -46.517861 7.738422 13.736584 69.570196 10.680376 -4.820788 11.174953 -0.501801 -12.677833 0.000001 0.000000 -0.000000 0.000000 0.000001 0.000000 -44.614150 -2.072212 -1.300876 40.006949 8.598342 -8.821055 1.321898 -0.571437 -0.270360 0.000000 0.000000 0.000000 -0.000001 0.000000 -0.000000 8.851547 -0.048094 0.246835 5.935143 1.265344 0.028184 5.931837 1.003514 -0.127976 10.654272 1.255347 1.054944 7.455388 11.607420 -5.324461 0.000001 -0.000000 -0.000000 0.000001 -0.000000 -0.000000 0.000001 -0.000000 0.000000 0.000001 -0.000000 -0.000000 -0.000001 0.000000 0.000001 0.000001 -0.000000 -0.000000 -0.000001 0.000000 0.000001 0.000001 -0.000000 -0.000000 0.000001 -0.000000 -0.000000 2.143880 -11.174950 11.909715 -0.423612 5.439645 -38.753442 -0.000020 -61.339450 -0.000016 -25.747959 -9.130942 -2.207545 -3.563034 2.263686 -4.920874 7.756868 26.012591 2.487566 0.000003 0.000003 -0.000002 7.750854 0.803975 -64.418601 6.459910 5.819387 -95.983132 -0.000001 0.000001 -0.000002 5.066403 8.137087 -81.603986 6.486581 5.816553 -96.246251 0.000003 0.000000 0.000001 6.970839 8.234985 -88.207440 6.529508 5.811729 -96.669778 -0.000003 -0.000001 -0.000000 6.748831 23.235001 -96.323023 6.498785 5.815225 -96.366729 -0.000001 -0.000000 0.000003 0.000000 0.000001 -0.000001 -0.228520 11.823132 -11.592726 17.832548 10.481210 10.048886 -0.000010 63.244007 0.000027 23.773097 19.342636 -22.260162 -3.562264 23.497008 3.472448 9.085285 -37.972864 -3.654970 -0.000000 -0.000001 -0.000001 4.194800 8.027603 6.437406 0.641340 -2.360391 30.397699 -0.000000 -0.000003 -0.000000 0.638184 -4.734015 19.724509 0.630124 -2.341174 30.124290 0.000001 0.000001 -0.000002 1.345115 -5.645513 33.262635 0.642255 -2.361954 30.420116 0.000001 -0.000001 -0.000005 4.944610 -11.032291 34.809181 0.608848 -2.304176 29.599403 -0.000002 0.000000 0.000002 0.000000 0.000001 -0.000001 -0.000001 0.000000 0.000000 -0.000001 0.000000 0.000001 -0.000001 0.000000 0.000000 -0.000001 0.000000 0.000000 -0.000001 0.000000 0.000000 -0.000001 0.000000 0.000001 -0.000001 0.000000 0.000000 -0.000001 0.000000 0.000000 -0.000001 0.000000 0.000000 -0.000001 0.000000 0.000001 -0.000000 -0.000001 -0.000000 -0.000000 -0.000001 -0.000000 -0.000000 -0.000001 -0.000000 
-0.300449 65.488083 -6.600802 5.217907 -15.931293 11.092801 -0.000000 0.000000 0.000000 -43.305616 9.620002 13.375332 72.426527 12.562045 -5.051173 8.152492 1.270213 -13.585524 0.000003 0.000003 -0.000001 0.000001 0.000000 0.000000 -43.507383 -0.567171 -0.869322 26.260394 8.255700 -7.960507 13.051038 3.320489 6.201894 0.000000 -0.000000 -0.000000 -0.000002 0.000000 0.000000 8.296283 -1.763639 -1.896718 5.171302 2.135391 -0.389227 5.149193 1.582632 -0.697491 8.817144 1.091400 1.245366 3.258777 14.048712 -6.724416 -0.000000 0.000000 -0.000000 -0.000000 0.000000 -0.000000 -0.000000 0.000000 0.000000 -0.000000 0.000000 -0.000000 -0.000000 0.000001 -0.000000 -0.000000 0.000000 -0.000000 -0.000000 0.000001 -0.000000 -0.000000 0.000000 -0.000000 -0.000000 0.000000 -0.000000 2.360179 -11.770587 12.592003 12.833488 13.385952 -34.872689 0.000048 -71.196341 0.000042 -15.661810 -7.341671 0.576386 -3.563038 2.263686 -4.920879 7.682190 25.434491 2.445431 0.000001 -0.000002 -0.000001 7.340838 0.587393 -59.887679 6.007613 5.848945 -91.535914 0.000001 -0.000001 -0.000002 4.643477 8.059461 -77.387983 6.104109 5.845601 -92.482790 -0.000000 -0.000001 -0.000001 7.095331 8.342997 -84.366845 6.175387 5.842108 -93.182789 -0.000001 0.000001 0.000004 6.539151 23.193280 -92.674329 6.171649 5.842297 -93.146227 -0.000001 -0.000002 -0.000001 -0.000001 -0.000001 0.000002 -0.087000 11.466382 -11.174897 15.584540 -0.850685 21.340854 -0.000029 70.276062 0.000047 24.004432 10.578263 -25.867402 -3.872315 21.792067 2.791761 9.085288 -37.972867 -3.654968 -0.000001 -0.000001 0.000001 4.268107 7.579974 11.996323 0.889800 -2.739884 35.977598 -0.000001 -0.000000 0.000004 0.913994 -5.177006 24.766572 0.829527 -2.654981 34.696893 -0.000000 -0.000001 0.000003 1.686835 -5.981526 37.850128 0.824467 -2.647653 34.587357 -0.000000 0.000001 -0.000002 5.234419 -11.309474 39.011469 0.771274 -2.568883 33.418398 -0.000002 -0.000000 -0.000005 0.000003 -0.000001 0.000002 -0.000001 -0.000000 -0.000000 -0.000001 0.000000 -0.000001 -0.000001 -0.000000 -0.000001 -0.000001 -0.000000 -0.000001 -0.000001 -0.000000 -0.000000 -0.000001 0.000000 -0.000001 -0.000001 -0.000000 -0.000001 -0.000001 -0.000000 -0.000001 -0.000001 -0.000000 -0.000000 -0.000001 0.000000 -0.000001 -0.000000 0.000000 0.000000 -0.000000 0.000000 0.000000 -0.000000 0.000000 0.000000 
-0.404519 66.889931 -10.636455 10.083772 -18.894600 11.260839 0.000001 0.000001 -0.000000 -39.767366 11.254146 13.072534 60.968857 11.960950 -5.265847 -0.622779 3.808003 -13.645547 0.000001 -0.000000 0.000000 0.000004 0.000000 -0.000000 -44.072038 0.890331 0.654683 18.394932 9.345919 -6.986560 14.278111 3.190822 13.664763 -0.000000 -0.000000 0.000001 -0.000000 0.000001 0.000002 7.720707 -2.815444 -1.160898 4.298936 2.983704 -0.784038 4.336631 2.214211 -1.245624 6.474520 0.957342 1.211389 -1.362308 16.568982 -8.155077 0.000002 -0.000000 -0.000000 0.000002 -0.000000 -0.000000 0.000002 -0.000000 -0.000000 0.000002 -0.000000 0.000000 0.000002 -0.000000 0.000000 0.000002 -0.000000 0.000000 0.000002 -0.000000 0.000000 0.000002 -0.000000 -0.000000 0.000002 -0.000000 -0.000000 2.395571 -11.753839 13.071915 22.953257 21.074603 -39.827127 -0.000100 -75.533689 -0.000091 -0.501358 -11.432334 2.078970 -3.563035 2.263687 -4.920876 7.571134 24.576426 2.381746 -0.000000 0.000002 -0.000001 6.766863 0.207845 -53.165062 5.335259 5.828330 -84.933942 0.000002 0.000000 -0.000002 4.025339 7.886692 -71.092038 5.527728 5.842132 -86.826779 -0.000000 0.000001 -0.000003 7.227931 8.579441 -78.583594 5.638854 5.847227 -87.917799 -0.000002 0.000001 0.000002 6.224742 23.240897 -87.153958 5.674422 5.848407 -88.266856 -0.000000 0.000001 -0.000000 0.000000 0.000000 0.000002 0.113798 10.946212 -10.543013 16.431794 -12.522952 33.640994 -0.000053 71.047396 0.000034 23.792694 6.411840 -31.985516 -4.331790 19.382827 1.771762 9.085284 -37.972864 -3.654969 0.000001 -0.000001 0.000000 4.448174 6.955924 19.948192 1.307401 -3.237289 43.974045 -0.000001 -0.000001 -0.000003 1.387237 -5.751567 32.078229 1.164596 -3.082697 41.384123 -0.000002 -0.000000 0.000003 2.234758 -6.402830 44.564631 1.129773 -3.042766 40.732120 -0.000003 0.000001 -0.000001 5.692362 -11.672198 45.213561 1.044071 -2.940485 39.090457 -0.000002 0.000000 -0.000001 -0.000001 0.000000 0.000004 -0.000002 0.000000 -0.000000 -0.000002 -0.000001 0.000001 -0.000002 0.000000 -0.000000 -0.000002 0.000000 -0.000000 -0.000002 0.000000 -0.000000 -0.000002 -0.000001 0.000001 -0.000002 0.000000 -0.000000 -0.000002 0.000000 -0.000000 -0.000002 0.000000 -0.000000 -0.000002 -0.000001 0.000001 0.000001 0.000001 -0.000000 0.000001 0.000001 -0.000000 0.000001 0.000001 -0.000000 
